<?xml version="1.0" encoding="UTF-8" standalone="no"?>
<!DOCTYPE svg PUBLIC "-//W3C//DTD SVG 1.1//EN"
 "http://www.w3.org/Graphics/SVG/1.1/DTD/svg11.dtd">
<!-- Generated by graphviz version 2.26.3 (20100126.1600)
 -->
<!-- Title: G Pages: 1 -->
<svg width="778pt" height="1480pt"
 viewBox="0.00 0.00 778.00 1480.00" xmlns="http://www.w3.org/2000/svg" xmlns:xlink="http://www.w3.org/1999/xlink">
<g id="graph1" class="graph" transform="scale(1 1) rotate(0) translate(4 1476)">
<title>G</title>
<polygon fill="white" stroke="white" points="-4,5 -4,-1476 775,-1476 775,5 -4,5"/>
<g id="graph2" class="cluster"><title>cluster_GdWrapper</title>
<polyline fill="none" stroke="gray" points="20,-98 750,-98 "/>
<path fill="none" stroke="gray" d="M750,-98C756,-98 762,-104 762,-110"/>
<polyline fill="none" stroke="gray" points="762,-110 762,-1452 "/>
<path fill="none" stroke="gray" d="M762,-1452C762,-1458 756,-1464 750,-1464"/>
<polyline fill="none" stroke="gray" points="750,-1464 20,-1464 "/>
<path fill="none" stroke="gray" d="M20,-1464C14,-1464 8,-1458 8,-1452"/>
<polyline fill="none" stroke="gray" points="8,-1452 8,-110 "/>
<path fill="none" stroke="gray" d="M8,-110C8,-104 14,-98 20,-98"/>
<text text-anchor="middle" x="385" y="-1450.1" font-family="Times Roman,serif" font-size="11.00" fill="gray">GdWrapper</text>
</g>
<g id="graph3" class="cluster"><title>cluster_GdWrapper\Action</title>
<polyline fill="none" stroke="gray" points="394,-924 733,-924 "/>
<path fill="none" stroke="gray" d="M733,-924C739,-924 745,-930 745,-936"/>
<polyline fill="none" stroke="gray" points="745,-936 745,-1422 "/>
<path fill="none" stroke="gray" d="M745,-1422C745,-1428 739,-1434 733,-1434"/>
<polyline fill="none" stroke="gray" points="733,-1434 394,-1434 "/>
<path fill="none" stroke="gray" d="M394,-1434C388,-1434 382,-1428 382,-1422"/>
<polyline fill="none" stroke="gray" points="382,-1422 382,-936 "/>
<path fill="none" stroke="gray" d="M382,-936C382,-930 388,-924 394,-924"/>
<text text-anchor="middle" x="563.5" y="-1420.1" font-family="Times Roman,serif" font-size="11.00" fill="gray">Action</text>
</g>
<g id="graph4" class="cluster"><title>cluster_GdWrapper\Action\CropStrategy</title>
<polyline fill="none" stroke="gray" points="402,-1222 725,-1222 "/>
<path fill="none" stroke="gray" d="M725,-1222C731,-1222 737,-1228 737,-1234"/>
<polyline fill="none" stroke="gray" points="737,-1234 737,-1392 "/>
<path fill="none" stroke="gray" d="M737,-1392C737,-1398 731,-1404 725,-1404"/>
<polyline fill="none" stroke="gray" points="725,-1404 402,-1404 "/>
<path fill="none" stroke="gray" d="M402,-1404C396,-1404 390,-1398 390,-1392"/>
<polyline fill="none" stroke="gray" points="390,-1392 390,-1234 "/>
<path fill="none" stroke="gray" d="M390,-1234C390,-1228 396,-1222 402,-1222"/>
<text text-anchor="middle" x="563.5" y="-1390.1" font-family="Times Roman,serif" font-size="11.00" fill="gray">CropStrategy</text>
</g>
<g id="graph5" class="cluster"><title>cluster_GdWrapper\Action\ResizeStrategy</title>
<polyline fill="none" stroke="gray" points="402,-1032 715,-1032 "/>
<path fill="none" stroke="gray" d="M715,-1032C721,-1032 727,-1038 727,-1044"/>
<polyline fill="none" stroke="gray" points="727,-1044 727,-1202 "/>
<path fill="none" stroke="gray" d="M727,-1202C727,-1208 721,-1214 715,-1214"/>
<polyline fill="none" stroke="gray" points="715,-1214 402,-1214 "/>
<path fill="none" stroke="gray" d="M402,-1214C396,-1214 390,-1208 390,-1202"/>
<polyline fill="none" stroke="gray" points="390,-1202 390,-1044 "/>
<path fill="none" stroke="gray" d="M390,-1044C390,-1038 396,-1032 402,-1032"/>
<text text-anchor="middle" x="558.5" y="-1200.1" font-family="Times Roman,serif" font-size="11.00" fill="gray">ResizeStrategy</text>
</g>
<g id="graph8" class="cluster"><title>cluster_GdWrapper\Geometry</title>
<polyline fill="none" stroke="gray" points="646,-842 694,-842 "/>
<path fill="none" stroke="gray" d="M694,-842C700,-842 706,-848 706,-854"/>
<polyline fill="none" stroke="gray" points="706,-854 706,-904 "/>
<path fill="none" stroke="gray" d="M706,-904C706,-910 700,-916 694,-916"/>
<polyline fill="none" stroke="gray" points="694,-916 646,-916 "/>
<path fill="none" stroke="gray" d="M646,-916C640,-916 634,-910 634,-904"/>
<polyline fill="none" stroke="gray" points="634,-904 634,-854 "/>
<path fill="none" stroke="gray" d="M634,-854C634,-848 640,-842 646,-842"/>
<text text-anchor="middle" x="670" y="-902.1" font-family="Times Roman,serif" font-size="11.00" fill="gray">Geometry</text>
</g>
<g id="graph9" class="cluster"><title>cluster_GdWrapper\Image</title>
<polyline fill="none" stroke="gray" points="647,-106 693,-106 "/>
<path fill="none" stroke="gray" d="M693,-106C699,-106 705,-112 705,-118"/>
<polyline fill="none" stroke="gray" points="705,-118 705,-168 "/>
<path fill="none" stroke="gray" d="M705,-168C705,-174 699,-180 693,-180"/>
<polyline fill="none" stroke="gray" points="693,-180 647,-180 "/>
<path fill="none" stroke="gray" d="M647,-180C641,-180 635,-174 635,-168"/>
<polyline fill="none" stroke="gray" points="635,-168 635,-118 "/>
<path fill="none" stroke="gray" d="M635,-118C635,-112 641,-106 647,-106"/>
<text text-anchor="middle" x="670" y="-166.1" font-family="Times Roman,serif" font-size="11.00" fill="gray">Image</text>
</g>
<g id="graph10" class="cluster"><title>cluster_GdWrapper\Io</title>
<polyline fill="none" stroke="gray" points="28,-432 726,-432 "/>
<path fill="none" stroke="gray" d="M726,-432C732,-432 738,-438 738,-444"/>
<polyline fill="none" stroke="gray" points="738,-444 738,-822 "/>
<path fill="none" stroke="gray" d="M738,-822C738,-828 732,-834 726,-834"/>
<polyline fill="none" stroke="gray" points="726,-834 28,-834 "/>
<path fill="none" stroke="gray" d="M28,-834C22,-834 16,-828 16,-822"/>
<polyline fill="none" stroke="gray" points="16,-822 16,-444 "/>
<path fill="none" stroke="gray" d="M16,-444C16,-438 22,-432 28,-432"/>
<text text-anchor="middle" x="377" y="-820.1" font-family="Times Roman,serif" font-size="11.00" fill="gray">Io</text>
</g>
<g id="graph11" class="cluster"><title>cluster_GdWrapper\Io\Reader</title>
<polyline fill="none" stroke="gray" points="36,-676 718,-676 "/>
<path fill="none" stroke="gray" d="M718,-676C724,-676 730,-682 730,-688"/>
<polyline fill="none" stroke="gray" points="730,-688 730,-792 "/>
<path fill="none" stroke="gray" d="M730,-792C730,-798 724,-804 718,-804"/>
<polyline fill="none" stroke="gray" points="718,-804 36,-804 "/>
<path fill="none" stroke="gray" d="M36,-804C30,-804 24,-798 24,-792"/>
<polyline fill="none" stroke="gray" points="24,-792 24,-688 "/>
<path fill="none" stroke="gray" d="M24,-688C24,-682 30,-676 36,-676"/>
<text text-anchor="middle" x="377" y="-790.1" font-family="Times Roman,serif" font-size="11.00" fill="gray">Reader</text>
</g>
<g id="graph12" class="cluster"><title>cluster_GdWrapper\Io\Writer</title>
<polyline fill="none" stroke="gray" points="36,-540 718,-540 "/>
<path fill="none" stroke="gray" d="M718,-540C724,-540 730,-546 730,-552"/>
<polyline fill="none" stroke="gray" points="730,-552 730,-656 "/>
<path fill="none" stroke="gray" d="M730,-656C730,-662 724,-668 718,-668"/>
<polyline fill="none" stroke="gray" points="718,-668 36,-668 "/>
<path fill="none" stroke="gray" d="M36,-668C30,-668 24,-662 24,-656"/>
<polyline fill="none" stroke="gray" points="24,-656 24,-552 "/>
<path fill="none" stroke="gray" d="M24,-552C24,-546 30,-540 36,-540"/>
<text text-anchor="middle" x="377" y="-654.1" font-family="Times Roman,serif" font-size="11.00" fill="gray">Writer</text>
</g>
<g id="graph15" class="cluster"><title>cluster_GdWrapper\Resource</title>
<polyline fill="none" stroke="gray" points="186,-188 742,-188 "/>
<path fill="none" stroke="gray" d="M742,-188C748,-188 754,-194 754,-200"/>
<polyline fill="none" stroke="gray" points="754,-200 754,-412 "/>
<path fill="none" stroke="gray" d="M754,-412C754,-418 748,-424 742,-424"/>
<polyline fill="none" stroke="gray" points="742,-424 186,-424 "/>
<path fill="none" stroke="gray" d="M186,-424C180,-424 174,-418 174,-412"/>
<polyline fill="none" stroke="gray" points="174,-412 174,-200 "/>
<path fill="none" stroke="gray" d="M174,-200C174,-194 180,-188 186,-188"/>
<text text-anchor="middle" x="464" y="-410.1" font-family="Times Roman,serif" font-size="11.00" fill="gray">Resource</text>
</g>
<!-- \\GdWrapper\\Action\\CropStrategy\\Strategy -->
<g id="node4" class="node"><title>\\GdWrapper\\Action\\CropStrategy\\Strategy</title>
<a xlink:href="Action.CropStrategy.Strategy.html" xlink:title="Strategy" target="_parent">
<polygon fill="none" stroke="black" points="469,-1320 399,-1320 399,-1284 469,-1284 469,-1320"/>
<text text-anchor="middle" x="434" y="-1299.1" font-family="Courier,monospace" font-size="11.00">Strategy</text>
</a>
</g>
<!-- \\GdWrapper\\Action\\CropStrategy\\FixedEdges -->
<g id="node5" class="node"><title>\\GdWrapper\\Action\\CropStrategy\\FixedEdges</title>
<a xlink:href="Action.CropStrategy.FixedEdges.html" xlink:title="FixedEdges" target="_parent">
<polygon fill="none" stroke="black" points="712,-1374 628,-1374 628,-1338 712,-1338 712,-1374"/>
<text text-anchor="middle" x="670" y="-1353.1" font-family="Courier,monospace" font-size="11.00">FixedEdges</text>
</a>
</g>
<!-- \\GdWrapper\\Action\\CropStrategy\\FixedEdges&#45;&gt;\\GdWrapper\\Action\\CropStrategy\\Strategy -->
<g id="edge52" class="edge"><title>\\GdWrapper\\Action\\CropStrategy\\FixedEdges&#45;&gt;\\GdWrapper\\Action\\CropStrategy\\Strategy</title>
<path fill="none" stroke="black" stroke-dasharray="1,5" d="M627.808,-1346.35C586.076,-1336.8 522.406,-1322.23 479.544,-1312.42"/>
<polygon fill="none" stroke="black" points="480.188,-1308.98 469.659,-1310.16 478.626,-1315.8 480.188,-1308.98"/>
</g>
<!-- \\GdWrapper\\Action\\CropStrategy\\FixedPoints -->
<g id="node6" class="node"><title>\\GdWrapper\\Action\\CropStrategy\\FixedPoints</title>
<a xlink:href="Action.CropStrategy.FixedPoints.html" xlink:title="FixedPoints" target="_parent">
<polygon fill="none" stroke="black" points="715,-1320 625,-1320 625,-1284 715,-1284 715,-1320"/>
<text text-anchor="middle" x="670" y="-1299.1" font-family="Courier,monospace" font-size="11.00">FixedPoints</text>
</a>
</g>
<!-- \\GdWrapper\\Action\\CropStrategy\\FixedPoints&#45;&gt;\\GdWrapper\\Action\\CropStrategy\\Strategy -->
<g id="edge54" class="edge"><title>\\GdWrapper\\Action\\CropStrategy\\FixedPoints&#45;&gt;\\GdWrapper\\Action\\CropStrategy\\Strategy</title>
<path fill="none" stroke="black" stroke-dasharray="1,5" d="M624.497,-1302C582.884,-1302 521.634,-1302 479.898,-1302"/>
<polygon fill="none" stroke="black" points="479.731,-1298.5 469.731,-1302 479.731,-1305.5 479.731,-1298.5"/>
</g>
<!-- \\GdWrapper\\Action\\CropStrategy\\PercentualEdges -->
<g id="node7" class="node"><title>\\GdWrapper\\Action\\CropStrategy\\PercentualEdges</title>
<a xlink:href="Action.CropStrategy.PercentualEdges.html" xlink:title="PercentualEdges" target="_parent">
<polygon fill="none" stroke="black" points="729,-1266 611,-1266 611,-1230 729,-1230 729,-1266"/>
<text text-anchor="middle" x="670" y="-1245.1" font-family="Courier,monospace" font-size="11.00">PercentualEdges</text>
</a>
</g>
<!-- \\GdWrapper\\Action\\CropStrategy\\PercentualEdges&#45;&gt;\\GdWrapper\\Action\\CropStrategy\\Strategy -->
<g id="edge56" class="edge"><title>\\GdWrapper\\Action\\CropStrategy\\PercentualEdges&#45;&gt;\\GdWrapper\\Action\\CropStrategy\\Strategy</title>
<path fill="none" stroke="black" stroke-dasharray="1,5" d="M610.752,-1261.56C570.19,-1270.84 517.194,-1282.96 479.848,-1291.51"/>
<polygon fill="none" stroke="black" points="478.72,-1288.18 469.753,-1293.82 480.281,-1295 478.72,-1288.18"/>
</g>
<!-- \\GdWrapper\\Action\\ResizeStrategy\\KeepRatio -->
<g id="node9" class="node"><title>\\GdWrapper\\Action\\ResizeStrategy\\KeepRatio</title>
<a xlink:href="Action.ResizeStrategy.KeepRatio.html" xlink:title="KeepRatio" target="_parent">
<polygon fill="none" stroke="black" points="708,-1184 632,-1184 632,-1148 708,-1148 708,-1184"/>
<text text-anchor="middle" x="670" y="-1163.1" font-family="Courier,monospace" font-size="11.00">KeepRatio</text>
</a>
</g>
<!-- \\GdWrapper\\Action\\ResizeStrategy\\Strategy -->
<g id="node10" class="node"><title>\\GdWrapper\\Action\\ResizeStrategy\\Strategy</title>
<a xlink:href="Action.ResizeStrategy.Strategy.html" xlink:title="Strategy" target="_parent">
<polygon fill="none" stroke="black" points="469,-1130 399,-1130 399,-1094 469,-1094 469,-1130"/>
<text text-anchor="middle" x="434" y="-1109.1" font-family="Courier,monospace" font-size="11.00">Strategy</text>
</a>
</g>
<!-- \\GdWrapper\\Action\\ResizeStrategy\\KeepRatio&#45;&gt;\\GdWrapper\\Action\\ResizeStrategy\\Strategy -->
<g id="edge42" class="edge"><title>\\GdWrapper\\Action\\ResizeStrategy\\KeepRatio&#45;&gt;\\GdWrapper\\Action\\ResizeStrategy\\Strategy</title>
<path fill="none" stroke="black" stroke-dasharray="1,5" d="M631.294,-1157.14C589.682,-1147.62 523.585,-1132.5 479.512,-1122.41"/>
<polygon fill="none" stroke="black" points="480.164,-1118.97 469.636,-1120.15 478.603,-1125.8 480.164,-1118.97"/>
</g>
<!-- \\GdWrapper\\Action\\ResizeStrategy\\Proportional -->
<g id="node11" class="node"><title>\\GdWrapper\\Action\\ResizeStrategy\\Proportional</title>
<a xlink:href="Action.ResizeStrategy.Proportional.html" xlink:title="Proportional" target="_parent">
<polygon fill="none" stroke="black" points="719,-1130 621,-1130 621,-1094 719,-1094 719,-1130"/>
<text text-anchor="middle" x="670" y="-1109.1" font-family="Courier,monospace" font-size="11.00">Proportional</text>
</a>
</g>
<!-- \\GdWrapper\\Action\\ResizeStrategy\\Proportional&#45;&gt;\\GdWrapper\\Action\\ResizeStrategy\\Strategy -->
<g id="edge44" class="edge"><title>\\GdWrapper\\Action\\ResizeStrategy\\Proportional&#45;&gt;\\GdWrapper\\Action\\ResizeStrategy\\Strategy</title>
<path fill="none" stroke="black" stroke-dasharray="1,5" d="M620.814,-1112C579.308,-1112 520.341,-1112 479.818,-1112"/>
<polygon fill="none" stroke="black" points="479.678,-1108.5 469.678,-1112 479.678,-1115.5 479.678,-1108.5"/>
</g>
<!-- \\GdWrapper\\Action\\ResizeStrategy\\Exact -->
<g id="node12" class="node"><title>\\GdWrapper\\Action\\ResizeStrategy\\Exact</title>
<a xlink:href="Action.ResizeStrategy.Exact.html" xlink:title="Exact" target="_parent">
<polygon fill="none" stroke="black" points="697,-1076 643,-1076 643,-1040 697,-1040 697,-1076"/>
<text text-anchor="middle" x="670" y="-1055.1" font-family="Courier,monospace" font-size="11.00">Exact</text>
</a>
</g>
<!-- \\GdWrapper\\Action\\ResizeStrategy\\Exact&#45;&gt;\\GdWrapper\\Action\\ResizeStrategy\\Strategy -->
<g id="edge46" class="edge"><title>\\GdWrapper\\Action\\ResizeStrategy\\Exact&#45;&gt;\\GdWrapper\\Action\\ResizeStrategy\\Strategy</title>
<path fill="none" stroke="black" stroke-dasharray="1,5" d="M642.928,-1064.19C603.027,-1073.32 527.931,-1090.51 479.48,-1101.59"/>
<polygon fill="none" stroke="black" points="478.534,-1098.22 469.567,-1103.86 480.096,-1105.04 478.534,-1098.22"/>
</g>
<!-- \\GdWrapper\\Action\\Crop -->
<g id="node13" class="node"><title>\\GdWrapper\\Action\\Crop</title>
<a xlink:href="Action.Crop.html" xlink:title="Crop" target="_parent">
<polygon fill="none" stroke="black" points="697,-1022 643,-1022 643,-986 697,-986 697,-1022"/>
<text text-anchor="middle" x="670" y="-1001.1" font-family="Courier,monospace" font-size="11.00">Crop</text>
</a>
</g>
<!-- \\GdWrapper\\Action\\Action -->
<g id="node15" class="node"><title>\\GdWrapper\\Action\\Action</title>
<a xlink:href="Action.Action.html" xlink:title="Action" target="_parent">
<polygon fill="none" stroke="black" points="462,-995 406,-995 406,-959 462,-959 462,-995"/>
<text text-anchor="middle" x="434" y="-974.1" font-family="Courier,monospace" font-size="11.00">Action</text>
</a>
</g>
<!-- \\GdWrapper\\Action\\Crop&#45;&gt;\\GdWrapper\\Action\\Action -->
<g id="edge48" class="edge"><title>\\GdWrapper\\Action\\Crop&#45;&gt;\\GdWrapper\\Action\\Action</title>
<path fill="none" stroke="black" stroke-dasharray="1,5" d="M642.928,-1000.9C601.08,-996.115 520.519,-986.898 472.585,-981.414"/>
<polygon fill="none" stroke="black" points="472.921,-977.93 462.588,-980.271 472.126,-984.885 472.921,-977.93"/>
</g>
<!-- \\GdWrapper\\Action\\Resize -->
<g id="node14" class="node"><title>\\GdWrapper\\Action\\Resize</title>
<a xlink:href="Action.Resize.html" xlink:title="Resize" target="_parent">
<polygon fill="none" stroke="black" points="698,-968 642,-968 642,-932 698,-932 698,-968"/>
<text text-anchor="middle" x="670" y="-947.1" font-family="Courier,monospace" font-size="11.00">Resize</text>
</a>
</g>
<!-- \\GdWrapper\\Action\\Resize&#45;&gt;\\GdWrapper\\Action\\Action -->
<g id="edge50" class="edge"><title>\\GdWrapper\\Action\\Resize&#45;&gt;\\GdWrapper\\Action\\Action</title>
<path fill="none" stroke="black" stroke-dasharray="1,5" d="M641.062,-953.311C598.837,-958.141 520.238,-967.134 472.965,-972.542"/>
<polygon fill="none" stroke="black" points="472.343,-969.09 462.805,-973.704 473.138,-976.045 472.343,-969.09"/>
</g>
<!-- \\GdWrapper\\Geometry\\Point -->
<g id="node19" class="node"><title>\\GdWrapper\\Geometry\\Point</title>
<a xlink:href="Geometry.Point.html" xlink:title="Point" target="_parent">
<polygon fill="none" stroke="black" points="697,-886 643,-886 643,-850 697,-850 697,-886"/>
<text text-anchor="middle" x="670" y="-865.1" font-family="Courier,monospace" font-size="11.00">Point</text>
</a>
</g>
<!-- \\GdWrapper\\Image\\Info -->
<g id="node21" class="node"><title>\\GdWrapper\\Image\\Info</title>
<a xlink:href="Image.Info.html" xlink:title="Info" target="_parent">
<polygon fill="none" stroke="black" points="697,-150 643,-150 643,-114 697,-114 697,-150"/>
<text text-anchor="middle" x="670" y="-129.1" font-family="Courier,monospace" font-size="11.00">Info</text>
</a>
</g>
<!-- \\SplFileInfo -->
<g id="node62" class="node"><title>\\SplFileInfo</title>
<ellipse fill="none" stroke="black" cx="434" cy="-18" rx="65.0538" ry="18.3848"/>
<text text-anchor="middle" x="434" y="-14.4" font-family="Times Roman,serif" font-size="14.00" fill="gray">\SplFileInfo</text>
</g>
<!-- \\GdWrapper\\Image\\Info&#45;&gt;\\SplFileInfo -->
<g id="edge38" class="edge"><title>\\GdWrapper\\Image\\Info&#45;&gt;\\SplFileInfo</title>
<path fill="none" stroke="black" d="M643.73,-113.996C614.896,-94.856 566.74,-64.6885 522,-45 512.356,-40.7562 501.843,-36.9074 491.548,-33.5318"/>
<polygon fill="none" stroke="black" points="492.37,-30.1209 481.78,-30.4428 490.259,-36.7951 492.37,-30.1209"/>
</g>
<!-- \\GdWrapper\\Io\\Reader\\Reader -->
<g id="node24" class="node"><title>\\GdWrapper\\Io\\Reader\\Reader</title>
<a xlink:href="Io.Reader.Reader.html" xlink:title="Reader" target="_parent">
<polygon fill="none" stroke="black" points="89,-747 33,-747 33,-711 89,-711 89,-747"/>
<text text-anchor="middle" x="61" y="-726.1" font-family="Courier,monospace" font-size="11.00">Reader</text>
</a>
</g>
<!-- \\GdWrapper\\Io\\Reader\\JpegReader -->
<g id="node25" class="node"><title>\\GdWrapper\\Io\\Reader\\JpegReader</title>
<a xlink:href="Io.Reader.JpegReader.html" xlink:title="JpegReader" target="_parent">
<polygon fill="none" stroke="black" points="476,-720 392,-720 392,-684 476,-684 476,-720"/>
<text text-anchor="middle" x="434" y="-699.1" font-family="Courier,monospace" font-size="11.00">JpegReader</text>
</a>
</g>
<!-- \\GdWrapper\\Io\\Reader\\AbstractReader -->
<g id="node27" class="node"><title>\\GdWrapper\\Io\\Reader\\AbstractReader</title>
<a xlink:href="Io.Reader.AbstractReader.html" xlink:title="«abstract»&lt;br/&gt;AbstractReader" target="_parent">
<polygon fill="none" stroke="black" points="274,-747 162,-747 162,-711 274,-711 274,-747"/>
<text text-anchor="start" x="184" y="-734.433" font-family="Courier,monospace" font-size="11.00">«abstract»</text>
<text text-anchor="start" x="170.5" y="-721.233" font-family="Courier,monospace" font-size="11.00">AbstractReader</text>
</a>
</g>
<!-- \\GdWrapper\\Io\\Reader\\JpegReader&#45;&gt;\\GdWrapper\\Io\\Reader\\AbstractReader -->
<g id="edge32" class="edge"><title>\\GdWrapper\\Io\\Reader\\JpegReader&#45;&gt;\\GdWrapper\\Io\\Reader\\AbstractReader</title>
<path fill="none" stroke="black" d="M391.84,-707.27C361.334,-711.083 319.496,-716.313 284.508,-720.686"/>
<polygon fill="none" stroke="black" points="283.853,-717.241 274.365,-721.954 284.722,-724.187 283.853,-717.241"/>
</g>
<!-- \\GdWrapper\\Io\\Reader\\ReaderFactory -->
<g id="node26" class="node"><title>\\GdWrapper\\Io\\Reader\\ReaderFactory</title>
<a xlink:href="Io.Reader.ReaderFactory.html" xlink:title="ReaderFactory" target="_parent">
<polygon fill="none" stroke="black" points="722,-774 618,-774 618,-738 722,-738 722,-774"/>
<text text-anchor="middle" x="670" y="-753.1" font-family="Courier,monospace" font-size="11.00">ReaderFactory</text>
</a>
</g>
<!-- \\GdWrapper\\Io\\Reader\\AbstractReader&#45;&gt;\\GdWrapper\\Io\\Reader\\Reader -->
<g id="edge60" class="edge"><title>\\GdWrapper\\Io\\Reader\\AbstractReader&#45;&gt;\\GdWrapper\\Io\\Reader\\Reader</title>
<path fill="none" stroke="black" stroke-dasharray="1,5" d="M161.763,-729C141.22,-729 118.459,-729 99.7757,-729"/>
<polygon fill="none" stroke="black" points="99.5752,-725.5 89.5752,-729 99.5752,-732.5 99.5752,-725.5"/>
</g>
<!-- \\GdWrapper\\Io\\Reader\\PngReader -->
<g id="node28" class="node"><title>\\GdWrapper\\Io\\Reader\\PngReader</title>
<a xlink:href="Io.Reader.PngReader.html" xlink:title="PngReader" target="_parent">
<polygon fill="none" stroke="black" points="472,-774 396,-774 396,-738 472,-738 472,-774"/>
<text text-anchor="middle" x="434" y="-753.1" font-family="Courier,monospace" font-size="11.00">PngReader</text>
</a>
</g>
<!-- \\GdWrapper\\Io\\Reader\\PngReader&#45;&gt;\\GdWrapper\\Io\\Reader\\AbstractReader -->
<g id="edge34" class="edge"><title>\\GdWrapper\\Io\\Reader\\PngReader&#45;&gt;\\GdWrapper\\Io\\Reader\\AbstractReader</title>
<path fill="none" stroke="black" d="M395.384,-751.173C364.548,-747.319 320.627,-741.828 284.205,-737.276"/>
<polygon fill="none" stroke="black" points="284.505,-733.786 274.148,-736.019 283.637,-740.732 284.505,-733.786"/>
</g>
<!-- \\GdWrapper\\Io\\Reader\\JpgReader -->
<g id="node29" class="node"><title>\\GdWrapper\\Io\\Reader\\JpgReader</title>
<a xlink:href="Io.Reader.JpgReader.html" xlink:title="JpgReader" target="_parent">
<polygon fill="none" stroke="black" points="708,-720 632,-720 632,-684 708,-684 708,-720"/>
<text text-anchor="middle" x="670" y="-699.1" font-family="Courier,monospace" font-size="11.00">JpgReader</text>
</a>
</g>
<!-- \\GdWrapper\\Io\\Reader\\JpgReader&#45;&gt;\\GdWrapper\\Io\\Reader\\JpegReader -->
<g id="edge36" class="edge"><title>\\GdWrapper\\Io\\Reader\\JpgReader&#45;&gt;\\GdWrapper\\Io\\Reader\\JpegReader</title>
<path fill="none" stroke="black" d="M631.294,-702C591.828,-702 530.336,-702 486.499,-702"/>
<polygon fill="none" stroke="black" points="486.317,-698.5 476.317,-702 486.317,-705.5 486.317,-698.5"/>
</g>
<!-- \\GdWrapper\\Io\\Writer\\PngWriter -->
<g id="node31" class="node"><title>\\GdWrapper\\Io\\Writer\\PngWriter</title>
<a xlink:href="Io.Writer.PngWriter.html" xlink:title="PngWriter" target="_parent">
<polygon fill="none" stroke="black" points="472,-638 396,-638 396,-602 472,-602 472,-638"/>
<text text-anchor="middle" x="434" y="-617.1" font-family="Courier,monospace" font-size="11.00">PngWriter</text>
</a>
</g>
<!-- \\GdWrapper\\Io\\Writer\\AbstractWriter -->
<g id="node36" class="node"><title>\\GdWrapper\\Io\\Writer\\AbstractWriter</title>
<a xlink:href="Io.Writer.AbstractWriter.html" xlink:title="«abstract»&lt;br/&gt;AbstractWriter" target="_parent">
<polygon fill="none" stroke="black" points="274,-611 162,-611 162,-575 274,-575 274,-611"/>
<text text-anchor="start" x="184" y="-598.433" font-family="Courier,monospace" font-size="11.00">«abstract»</text>
<text text-anchor="start" x="170.5" y="-585.233" font-family="Courier,monospace" font-size="11.00">AbstractWriter</text>
</a>
</g>
<!-- \\GdWrapper\\Io\\Writer\\PngWriter&#45;&gt;\\GdWrapper\\Io\\Writer\\AbstractWriter -->
<g id="edge26" class="edge"><title>\\GdWrapper\\Io\\Writer\\PngWriter&#45;&gt;\\GdWrapper\\Io\\Writer\\AbstractWriter</title>
<path fill="none" stroke="black" d="M395.384,-615.173C364.548,-611.319 320.627,-605.828 284.205,-601.276"/>
<polygon fill="none" stroke="black" points="284.505,-597.786 274.148,-600.019 283.637,-604.732 284.505,-597.786"/>
</g>
<!-- \\GdWrapper\\Io\\Writer\\Writer -->
<g id="node32" class="node"><title>\\GdWrapper\\Io\\Writer\\Writer</title>
<a xlink:href="Io.Writer.Writer.html" xlink:title="Writer" target="_parent">
<polygon fill="none" stroke="black" points="89,-611 33,-611 33,-575 89,-575 89,-611"/>
<text text-anchor="middle" x="61" y="-590.1" font-family="Courier,monospace" font-size="11.00">Writer</text>
</a>
</g>
<!-- \\GdWrapper\\Io\\Writer\\WriterFactory -->
<g id="node33" class="node"><title>\\GdWrapper\\Io\\Writer\\WriterFactory</title>
<a xlink:href="Io.Writer.WriterFactory.html" xlink:title="WriterFactory" target="_parent">
<polygon fill="none" stroke="black" points="722,-638 618,-638 618,-602 722,-602 722,-638"/>
<text text-anchor="middle" x="670" y="-617.1" font-family="Courier,monospace" font-size="11.00">WriterFactory</text>
</a>
</g>
<!-- \\GdWrapper\\Io\\Writer\\JpgWriter -->
<g id="node34" class="node"><title>\\GdWrapper\\Io\\Writer\\JpgWriter</title>
<a xlink:href="Io.Writer.JpgWriter.html" xlink:title="JpgWriter" target="_parent">
<polygon fill="none" stroke="black" points="708,-584 632,-584 632,-548 708,-548 708,-584"/>
<text text-anchor="middle" x="670" y="-563.1" font-family="Courier,monospace" font-size="11.00">JpgWriter</text>
</a>
</g>
<!-- \\GdWrapper\\Io\\Writer\\JpegWriter -->
<g id="node35" class="node"><title>\\GdWrapper\\Io\\Writer\\JpegWriter</title>
<a xlink:href="Io.Writer.JpegWriter.html" xlink:title="JpegWriter" target="_parent">
<polygon fill="none" stroke="black" points="476,-584 392,-584 392,-548 476,-548 476,-584"/>
<text text-anchor="middle" x="434" y="-563.1" font-family="Courier,monospace" font-size="11.00">JpegWriter</text>
</a>
</g>
<!-- \\GdWrapper\\Io\\Writer\\JpgWriter&#45;&gt;\\GdWrapper\\Io\\Writer\\JpegWriter -->
<g id="edge28" class="edge"><title>\\GdWrapper\\Io\\Writer\\JpgWriter&#45;&gt;\\GdWrapper\\Io\\Writer\\JpegWriter</title>
<path fill="none" stroke="black" d="M631.294,-566C591.828,-566 530.336,-566 486.499,-566"/>
<polygon fill="none" stroke="black" points="486.317,-562.5 476.317,-566 486.317,-569.5 486.317,-562.5"/>
</g>
<!-- \\GdWrapper\\Io\\Writer\\JpegWriter&#45;&gt;\\GdWrapper\\Io\\Writer\\AbstractWriter -->
<g id="edge30" class="edge"><title>\\GdWrapper\\Io\\Writer\\JpegWriter&#45;&gt;\\GdWrapper\\Io\\Writer\\AbstractWriter</title>
<path fill="none" stroke="black" d="M391.84,-571.27C361.334,-575.083 319.496,-580.313 284.508,-584.686"/>
<polygon fill="none" stroke="black" points="283.853,-581.241 274.365,-585.954 284.722,-588.187 283.853,-581.241"/>
</g>
<!-- \\GdWrapper\\Io\\Writer\\AbstractWriter&#45;&gt;\\GdWrapper\\Io\\Writer\\Writer -->
<g id="edge58" class="edge"><title>\\GdWrapper\\Io\\Writer\\AbstractWriter&#45;&gt;\\GdWrapper\\Io\\Writer\\Writer</title>
<path fill="none" stroke="black" stroke-dasharray="1,5" d="M161.763,-593C141.22,-593 118.459,-593 99.7757,-593"/>
<polygon fill="none" stroke="black" points="99.5752,-589.5 89.5752,-593 99.5752,-596.5 99.5752,-589.5"/>
</g>
<!-- \\GdWrapper\\Io\\Preset -->
<g id="node37" class="node"><title>\\GdWrapper\\Io\\Preset</title>
<a xlink:href="Io.Preset.html" xlink:title="Preset" target="_parent">
<polygon fill="none" stroke="black" points="698,-530 642,-530 642,-494 698,-494 698,-530"/>
<text text-anchor="middle" x="670" y="-509.1" font-family="Courier,monospace" font-size="11.00">Preset</text>
</a>
</g>
<!-- \\GdWrapper\\Io\\Exception -->
<g id="node38" class="node"><title>\\GdWrapper\\Io\\Exception</title>
<a xlink:href="Io.Exception.html" xlink:title="Exception" target="_parent">
<polygon fill="none" stroke="black" points="708,-476 632,-476 632,-440 708,-440 708,-476"/>
<text text-anchor="middle" x="670" y="-455.1" font-family="Courier,monospace" font-size="11.00">Exception</text>
</a>
</g>
<!-- \\LogicException -->
<g id="node54" class="node"><title>\\LogicException</title>
<ellipse fill="none" stroke="black" cx="434" cy="-72" rx="87.1802" ry="18.3848"/>
<text text-anchor="middle" x="434" y="-68.4" font-family="Times Roman,serif" font-size="14.00" fill="gray">\LogicException</text>
</g>
<!-- \\GdWrapper\\Io\\Exception&#45;&gt;\\LogicException -->
<g id="edge24" class="edge"><title>\\GdWrapper\\Io\\Exception&#45;&gt;\\LogicException</title>
<path fill="none" stroke="black" d="M631.183,-450.083C617.815,-445.607 603.766,-438.676 594,-428 517.686,-344.571 573.856,-284.475 522,-184 505.132,-151.317 478.159,-118.805 458.518,-97.2977"/>
<polygon fill="none" stroke="black" points="461.013,-94.8413 451.645,-89.892 455.882,-99.6029 461.013,-94.8413"/>
</g>
<!-- \\GdWrapper\\Resource\\EmptyResourceFactory -->
<g id="node42" class="node"><title>\\GdWrapper\\Resource\\EmptyResourceFactory</title>
<a xlink:href="Resource.EmptyResourceFactory.html" xlink:title="EmptyResourceFactory" target="_parent">
<polygon fill="none" stroke="black" points="746,-394 594,-394 594,-358 746,-358 746,-394"/>
<text text-anchor="middle" x="670" y="-373.1" font-family="Courier,monospace" font-size="11.00">EmptyResourceFactory</text>
</a>
</g>
<!-- \\GdWrapper\\Resource\\AbstractResourceFactory -->
<g id="node45" class="node"><title>\\GdWrapper\\Resource\\AbstractResourceFactory</title>
<a xlink:href="Resource.AbstractResourceFactory.html" xlink:title="«abstract»&lt;br/&gt;AbstractResourceFactory" target="_parent">
<polygon fill="none" stroke="black" points="520,-367 348,-367 348,-331 520,-331 520,-367"/>
<text text-anchor="start" x="400" y="-354.433" font-family="Courier,monospace" font-size="11.00">«abstract»</text>
<text text-anchor="start" x="356" y="-341.233" font-family="Courier,monospace" font-size="11.00">AbstractResourceFactory</text>
</a>
</g>
<!-- \\GdWrapper\\Resource\\EmptyResourceFactory&#45;&gt;\\GdWrapper\\Resource\\AbstractResourceFactory -->
<g id="edge16" class="edge"><title>\\GdWrapper\\Resource\\EmptyResourceFactory&#45;&gt;\\GdWrapper\\Resource\\AbstractResourceFactory</title>
<path fill="none" stroke="black" d="M593.703,-367.271C573.682,-364.981 551.822,-362.48 530.88,-360.084"/>
<polygon fill="none" stroke="black" points="531.018,-356.577 520.685,-358.917 530.222,-363.531 531.018,-356.577"/>
</g>
<!-- \\GdWrapper\\Resource\\ImageResourceFactory -->
<g id="node43" class="node"><title>\\GdWrapper\\Resource\\ImageResourceFactory</title>
<a xlink:href="Resource.ImageResourceFactory.html" xlink:title="ImageResourceFactory" target="_parent">
<polygon fill="none" stroke="black" points="746,-340 594,-340 594,-304 746,-304 746,-340"/>
<text text-anchor="middle" x="670" y="-319.1" font-family="Courier,monospace" font-size="11.00">ImageResourceFactory</text>
</a>
</g>
<!-- \\GdWrapper\\Resource\\ImageResourceFactory&#45;&gt;\\GdWrapper\\Resource\\AbstractResourceFactory -->
<g id="edge18" class="edge"><title>\\GdWrapper\\Resource\\ImageResourceFactory&#45;&gt;\\GdWrapper\\Resource\\AbstractResourceFactory</title>
<path fill="none" stroke="black" d="M593.703,-330.729C573.682,-333.019 551.822,-335.52 530.88,-337.916"/>
<polygon fill="none" stroke="black" points="530.222,-334.469 520.685,-339.083 531.018,-341.423 530.222,-334.469"/>
</g>
<!-- \\GdWrapper\\Resource\\EmptyResource -->
<g id="node44" class="node"><title>\\GdWrapper\\Resource\\EmptyResource</title>
<a xlink:href="Resource.EmptyResource.html" xlink:title="EmptyResource" target="_parent">
<polygon fill="none" stroke="black" points="722,-286 618,-286 618,-250 722,-250 722,-286"/>
<text text-anchor="middle" x="670" y="-265.1" font-family="Courier,monospace" font-size="11.00">EmptyResource</text>
</a>
</g>
<!-- \\GdWrapper\\Resource\\AbstractResource -->
<g id="node47" class="node"><title>\\GdWrapper\\Resource\\AbstractResource</title>
<a xlink:href="Resource.AbstractResource.html" xlink:title="«abstract»&lt;br/&gt;AbstractResource" target="_parent">
<polygon fill="none" stroke="black" points="497,-259 371,-259 371,-223 497,-223 497,-259"/>
<text text-anchor="start" x="400" y="-246.433" font-family="Courier,monospace" font-size="11.00">«abstract»</text>
<text text-anchor="start" x="379.5" y="-233.233" font-family="Courier,monospace" font-size="11.00">AbstractResource</text>
</a>
</g>
<!-- \\GdWrapper\\Resource\\EmptyResource&#45;&gt;\\GdWrapper\\Resource\\AbstractResource -->
<g id="edge20" class="edge"><title>\\GdWrapper\\Resource\\EmptyResource&#45;&gt;\\GdWrapper\\Resource\\AbstractResource</title>
<path fill="none" stroke="black" d="M617.917,-262.041C585.548,-258.338 543.435,-253.52 507.677,-249.429"/>
<polygon fill="none" stroke="black" points="507.622,-245.9 497.289,-248.241 506.826,-252.855 507.622,-245.9"/>
</g>
<!-- \\GdWrapper\\Resource\\ImageResource -->
<g id="node46" class="node"><title>\\GdWrapper\\Resource\\ImageResource</title>
<a xlink:href="Resource.ImageResource.html" xlink:title="ImageResource" target="_parent">
<polygon fill="none" stroke="black" points="722,-232 618,-232 618,-196 722,-196 722,-232"/>
<text text-anchor="middle" x="670" y="-211.1" font-family="Courier,monospace" font-size="11.00">ImageResource</text>
</a>
</g>
<!-- \\GdWrapper\\Resource\\ImageResource&#45;&gt;\\GdWrapper\\Resource\\AbstractResource -->
<g id="edge22" class="edge"><title>\\GdWrapper\\Resource\\ImageResource&#45;&gt;\\GdWrapper\\Resource\\AbstractResource</title>
<path fill="none" stroke="black" d="M617.917,-219.959C585.548,-223.662 543.435,-228.48 507.677,-232.571"/>
<polygon fill="none" stroke="black" points="506.826,-229.145 497.289,-233.759 507.622,-236.1 506.826,-229.145"/>
</g>
<!-- \\GdWrapper\\Resource\\Resource -->
<g id="node48" class="node"><title>\\GdWrapper\\Resource\\Resource</title>
<a xlink:href="Resource.Resource.html" xlink:title="Resource" target="_parent">
<polygon fill="none" stroke="black" points="253,-259 183,-259 183,-223 253,-223 253,-259"/>
<text text-anchor="middle" x="218" y="-238.1" font-family="Courier,monospace" font-size="11.00">Resource</text>
</a>
</g>
<!-- \\GdWrapper\\Resource\\AbstractResource&#45;&gt;\\GdWrapper\\Resource\\Resource -->
<g id="edge40" class="edge"><title>\\GdWrapper\\Resource\\AbstractResource&#45;&gt;\\GdWrapper\\Resource\\Resource</title>
<path fill="none" stroke="black" stroke-dasharray="1,5" d="M370.943,-241C336.597,-241 294.871,-241 263.683,-241"/>
<polygon fill="none" stroke="black" points="263.537,-237.5 253.537,-241 263.537,-244.5 263.537,-237.5"/>
</g>
</g>
</svg>
