<?xml version="1.0" encoding="UTF-8" standalone="no"?>
<!DOCTYPE svg PUBLIC "-//W3C//DTD SVG 1.1//EN"
 "http://www.w3.org/Graphics/SVG/1.1/DTD/svg11.dtd">
<!-- Generated by graphviz version 2.26.3 (20100126.1600)
 -->
<!-- Title: G Pages: 1 -->
<svg width="738pt" height="718pt"
 viewBox="0.00 0.00 738.00 718.00" xmlns="http://www.w3.org/2000/svg" xmlns:xlink="http://www.w3.org/1999/xlink">
<g id="graph1" class="graph" transform="scale(1 1) rotate(0) translate(4 714)">
<title>G</title>
<polygon fill="white" stroke="white" points="-4,5 -4,-714 735,-714 735,5 -4,5"/>
<g id="graph2" class="cluster"><title>cluster_GdWrapper</title>
<polyline fill="none" stroke="gray" points="20,-98 710,-98 "/>
<path fill="none" stroke="gray" d="M710,-98C716,-98 722,-104 722,-110"/>
<polyline fill="none" stroke="gray" points="722,-110 722,-690 "/>
<path fill="none" stroke="gray" d="M722,-690C722,-696 716,-702 710,-702"/>
<polyline fill="none" stroke="gray" points="710,-702 20,-702 "/>
<path fill="none" stroke="gray" d="M20,-702C14,-702 8,-696 8,-690"/>
<polyline fill="none" stroke="gray" points="8,-690 8,-110 "/>
<path fill="none" stroke="gray" d="M8,-110C8,-104 14,-98 20,-98"/>
<text text-anchor="middle" x="365" y="-688.1" font-family="Times Roman,serif" font-size="11.00" fill="gray">GdWrapper</text>
</g>
<g id="graph3" class="cluster"><title>cluster_GdWrapper\Image</title>
<polyline fill="none" stroke="gray" points="623,-188 669,-188 "/>
<path fill="none" stroke="gray" d="M669,-188C675,-188 681,-194 681,-200"/>
<polyline fill="none" stroke="gray" points="681,-200 681,-250 "/>
<path fill="none" stroke="gray" d="M681,-250C681,-256 675,-262 669,-262"/>
<polyline fill="none" stroke="gray" points="669,-262 623,-262 "/>
<path fill="none" stroke="gray" d="M623,-262C617,-262 611,-256 611,-250"/>
<polyline fill="none" stroke="gray" points="611,-250 611,-200 "/>
<path fill="none" stroke="gray" d="M611,-200C611,-194 617,-188 623,-188"/>
<text text-anchor="middle" x="646" y="-248.1" font-family="Times Roman,serif" font-size="11.00" fill="gray">Image</text>
</g>
<g id="graph4" class="cluster"><title>cluster_GdWrapper\Io</title>
<polyline fill="none" stroke="gray" points="28,-270 702,-270 "/>
<path fill="none" stroke="gray" d="M702,-270C708,-270 714,-276 714,-282"/>
<polyline fill="none" stroke="gray" points="714,-282 714,-660 "/>
<path fill="none" stroke="gray" d="M714,-660C714,-666 708,-672 702,-672"/>
<polyline fill="none" stroke="gray" points="702,-672 28,-672 "/>
<path fill="none" stroke="gray" d="M28,-672C22,-672 16,-666 16,-660"/>
<polyline fill="none" stroke="gray" points="16,-660 16,-282 "/>
<path fill="none" stroke="gray" d="M16,-282C16,-276 22,-270 28,-270"/>
<text text-anchor="middle" x="365" y="-658.1" font-family="Times Roman,serif" font-size="11.00" fill="gray">Io</text>
</g>
<g id="graph5" class="cluster"><title>cluster_GdWrapper\Io\Reader</title>
<polyline fill="none" stroke="gray" points="193,-514 694,-514 "/>
<path fill="none" stroke="gray" d="M694,-514C700,-514 706,-520 706,-526"/>
<polyline fill="none" stroke="gray" points="706,-526 706,-630 "/>
<path fill="none" stroke="gray" d="M706,-630C706,-636 700,-642 694,-642"/>
<polyline fill="none" stroke="gray" points="694,-642 193,-642 "/>
<path fill="none" stroke="gray" d="M193,-642C187,-642 181,-636 181,-630"/>
<polyline fill="none" stroke="gray" points="181,-630 181,-526 "/>
<path fill="none" stroke="gray" d="M181,-526C181,-520 187,-514 193,-514"/>
<text text-anchor="middle" x="443.5" y="-628.1" font-family="Times Roman,serif" font-size="11.00" fill="gray">Reader</text>
</g>
<g id="graph6" class="cluster"><title>cluster_GdWrapper\Io\Writer</title>
<polyline fill="none" stroke="gray" points="36,-378 694,-378 "/>
<path fill="none" stroke="gray" d="M694,-378C700,-378 706,-384 706,-390"/>
<polyline fill="none" stroke="gray" points="706,-390 706,-494 "/>
<path fill="none" stroke="gray" d="M706,-494C706,-500 700,-506 694,-506"/>
<polyline fill="none" stroke="gray" points="694,-506 36,-506 "/>
<path fill="none" stroke="gray" d="M36,-506C30,-506 24,-500 24,-494"/>
<polyline fill="none" stroke="gray" points="24,-494 24,-390 "/>
<path fill="none" stroke="gray" d="M24,-390C24,-384 30,-378 36,-378"/>
<text text-anchor="middle" x="365" y="-492.1" font-family="Times Roman,serif" font-size="11.00" fill="gray">Writer</text>
</g>
<g id="graph9" class="cluster"><title>cluster_GdWrapper\Resource</title>
<polyline fill="none" stroke="gray" points="614,-106 678,-106 "/>
<path fill="none" stroke="gray" d="M678,-106C684,-106 690,-112 690,-118"/>
<polyline fill="none" stroke="gray" points="690,-118 690,-168 "/>
<path fill="none" stroke="gray" d="M690,-168C690,-174 684,-180 678,-180"/>
<polyline fill="none" stroke="gray" points="678,-180 614,-180 "/>
<path fill="none" stroke="gray" d="M614,-180C608,-180 602,-174 602,-168"/>
<polyline fill="none" stroke="gray" points="602,-168 602,-118 "/>
<path fill="none" stroke="gray" d="M602,-118C602,-112 608,-106 614,-106"/>
<text text-anchor="middle" x="646" y="-166.1" font-family="Times Roman,serif" font-size="11.00" fill="gray">Resource</text>
</g>
<!-- \\GdWrapper\\Image\\Info -->
<g id="node3" class="node"><title>\\GdWrapper\\Image\\Info</title>
<a xlink:href="Image.Info.html" xlink:title="Info" target="_parent">
<polygon fill="none" stroke="black" points="673,-232 619,-232 619,-196 673,-196 673,-232"/>
<text text-anchor="middle" x="646" y="-211.1" font-family="Courier,monospace" font-size="11.00">Info</text>
</a>
</g>
<!-- \\SplFileInfo -->
<g id="node31" class="node"><title>\\SplFileInfo</title>
<ellipse fill="none" stroke="black" cx="434" cy="-18" rx="65.0538" ry="18.3848"/>
<text text-anchor="middle" x="434" y="-14.4" font-family="Times Roman,serif" font-size="14.00" fill="gray">\SplFileInfo</text>
</g>
<!-- \\GdWrapper\\Image\\Info&#45;&gt;\\SplFileInfo -->
<g id="edge20" class="edge"><title>\\GdWrapper\\Image\\Info&#45;&gt;\\SplFileInfo</title>
<path fill="none" stroke="black" d="M618.823,-202.116C610.142,-197.386 600.985,-191.309 594,-184 545.932,-133.701 575.424,-89.569 522,-45 515.135,-39.2727 507.068,-34.7592 498.651,-31.2025"/>
<polygon fill="none" stroke="black" points="499.638,-27.8341 489.047,-27.5797 497.168,-34.3837 499.638,-27.8341"/>
</g>
<!-- \\GdWrapper\\Io\\Reader\\Reader -->
<g id="node6" class="node"><title>\\GdWrapper\\Io\\Reader\\Reader</title>
<a xlink:href="Io.Reader.Reader.html" xlink:title="Reader" target="_parent">
<polygon fill="none" stroke="black" points="246,-585 190,-585 190,-549 246,-549 246,-585"/>
<text text-anchor="middle" x="218" y="-564.1" font-family="Courier,monospace" font-size="11.00">Reader</text>
</a>
</g>
<!-- \\GdWrapper\\Io\\Reader\\JpegReader -->
<g id="node7" class="node"><title>\\GdWrapper\\Io\\Reader\\JpegReader</title>
<a xlink:href="Io.Reader.JpegReader.html" xlink:title="JpegReader" target="_parent">
<polygon fill="none" stroke="black" points="476,-558 392,-558 392,-522 476,-522 476,-558"/>
<text text-anchor="middle" x="434" y="-537.1" font-family="Courier,monospace" font-size="11.00">JpegReader</text>
</a>
</g>
<!-- \\GdWrapper\\Io\\Reader\\JpegReader&#45;&gt;\\GdWrapper\\Io\\Reader\\Reader -->
<g id="edge24" class="edge"><title>\\GdWrapper\\Io\\Reader\\JpegReader&#45;&gt;\\GdWrapper\\Io\\Reader\\Reader</title>
<path fill="none" stroke="black" stroke-dasharray="1,5" d="M391.84,-545.27C352.675,-550.166 294.828,-557.396 256.784,-562.152"/>
<polygon fill="none" stroke="black" points="256.099,-558.71 246.611,-563.424 256.968,-565.656 256.099,-558.71"/>
</g>
<!-- \\GdWrapper\\Io\\Reader\\ReaderFactory -->
<g id="node8" class="node"><title>\\GdWrapper\\Io\\Reader\\ReaderFactory</title>
<a xlink:href="Io.Reader.ReaderFactory.html" xlink:title="ReaderFactory" target="_parent">
<polygon fill="none" stroke="black" points="698,-612 594,-612 594,-576 698,-576 698,-612"/>
<text text-anchor="middle" x="646" y="-591.1" font-family="Courier,monospace" font-size="11.00">ReaderFactory</text>
</a>
</g>
<!-- \\GdWrapper\\Io\\Reader\\PngReader -->
<g id="node9" class="node"><title>\\GdWrapper\\Io\\Reader\\PngReader</title>
<a xlink:href="Io.Reader.PngReader.html" xlink:title="PngReader" target="_parent">
<polygon fill="none" stroke="black" points="472,-612 396,-612 396,-576 472,-576 472,-612"/>
<text text-anchor="middle" x="434" y="-591.1" font-family="Courier,monospace" font-size="11.00">PngReader</text>
</a>
</g>
<!-- \\GdWrapper\\Io\\Reader\\PngReader&#45;&gt;\\GdWrapper\\Io\\Reader\\Reader -->
<g id="edge26" class="edge"><title>\\GdWrapper\\Io\\Reader\\PngReader&#45;&gt;\\GdWrapper\\Io\\Reader\\Reader</title>
<path fill="none" stroke="black" stroke-dasharray="1,5" d="M395.384,-589.173C356.174,-584.272 295.804,-576.726 256.6,-571.825"/>
<polygon fill="none" stroke="black" points="256.984,-568.346 246.627,-570.578 256.116,-575.292 256.984,-568.346"/>
</g>
<!-- \\GdWrapper\\Io\\Reader\\JpgReader -->
<g id="node10" class="node"><title>\\GdWrapper\\Io\\Reader\\JpgReader</title>
<a xlink:href="Io.Reader.JpgReader.html" xlink:title="JpgReader" target="_parent">
<polygon fill="none" stroke="black" points="684,-558 608,-558 608,-522 684,-522 684,-558"/>
<text text-anchor="middle" x="646" y="-537.1" font-family="Courier,monospace" font-size="11.00">JpgReader</text>
</a>
</g>
<!-- \\GdWrapper\\Io\\Reader\\JpgReader&#45;&gt;\\GdWrapper\\Io\\Reader\\JpegReader -->
<g id="edge18" class="edge"><title>\\GdWrapper\\Io\\Reader\\JpgReader&#45;&gt;\\GdWrapper\\Io\\Reader\\JpegReader</title>
<path fill="none" stroke="black" d="M607.116,-540C573.244,-540 523.84,-540 486.471,-540"/>
<polygon fill="none" stroke="black" points="486.273,-536.5 476.273,-540 486.273,-543.5 486.273,-536.5"/>
</g>
<!-- \\GdWrapper\\Io\\Writer\\PngWriter -->
<g id="node12" class="node"><title>\\GdWrapper\\Io\\Writer\\PngWriter</title>
<a xlink:href="Io.Writer.PngWriter.html" xlink:title="PngWriter" target="_parent">
<polygon fill="none" stroke="black" points="472,-476 396,-476 396,-440 472,-440 472,-476"/>
<text text-anchor="middle" x="434" y="-455.1" font-family="Courier,monospace" font-size="11.00">PngWriter</text>
</a>
</g>
<!-- \\GdWrapper\\Io\\Writer\\AbstractWriter -->
<g id="node17" class="node"><title>\\GdWrapper\\Io\\Writer\\AbstractWriter</title>
<a xlink:href="Io.Writer.AbstractWriter.html" xlink:title="«abstract»&lt;br/&gt;AbstractWriter" target="_parent">
<polygon fill="none" stroke="black" points="274,-449 162,-449 162,-413 274,-413 274,-449"/>
<text text-anchor="start" x="184" y="-436.433" font-family="Courier,monospace" font-size="11.00">«abstract»</text>
<text text-anchor="start" x="170.5" y="-423.233" font-family="Courier,monospace" font-size="11.00">AbstractWriter</text>
</a>
</g>
<!-- \\GdWrapper\\Io\\Writer\\PngWriter&#45;&gt;\\GdWrapper\\Io\\Writer\\AbstractWriter -->
<g id="edge12" class="edge"><title>\\GdWrapper\\Io\\Writer\\PngWriter&#45;&gt;\\GdWrapper\\Io\\Writer\\AbstractWriter</title>
<path fill="none" stroke="black" d="M395.384,-453.173C364.548,-449.319 320.627,-443.828 284.205,-439.276"/>
<polygon fill="none" stroke="black" points="284.505,-435.786 274.148,-438.019 283.637,-442.732 284.505,-435.786"/>
</g>
<!-- \\GdWrapper\\Io\\Writer\\Writer -->
<g id="node13" class="node"><title>\\GdWrapper\\Io\\Writer\\Writer</title>
<a xlink:href="Io.Writer.Writer.html" xlink:title="Writer" target="_parent">
<polygon fill="none" stroke="black" points="89,-449 33,-449 33,-413 89,-413 89,-449"/>
<text text-anchor="middle" x="61" y="-428.1" font-family="Courier,monospace" font-size="11.00">Writer</text>
</a>
</g>
<!-- \\GdWrapper\\Io\\Writer\\WriterFactory -->
<g id="node14" class="node"><title>\\GdWrapper\\Io\\Writer\\WriterFactory</title>
<a xlink:href="Io.Writer.WriterFactory.html" xlink:title="WriterFactory" target="_parent">
<polygon fill="none" stroke="black" points="698,-476 594,-476 594,-440 698,-440 698,-476"/>
<text text-anchor="middle" x="646" y="-455.1" font-family="Courier,monospace" font-size="11.00">WriterFactory</text>
</a>
</g>
<!-- \\GdWrapper\\Io\\Writer\\JpgWriter -->
<g id="node15" class="node"><title>\\GdWrapper\\Io\\Writer\\JpgWriter</title>
<a xlink:href="Io.Writer.JpgWriter.html" xlink:title="JpgWriter" target="_parent">
<polygon fill="none" stroke="black" points="684,-422 608,-422 608,-386 684,-386 684,-422"/>
<text text-anchor="middle" x="646" y="-401.1" font-family="Courier,monospace" font-size="11.00">JpgWriter</text>
</a>
</g>
<!-- \\GdWrapper\\Io\\Writer\\JpegWriter -->
<g id="node16" class="node"><title>\\GdWrapper\\Io\\Writer\\JpegWriter</title>
<a xlink:href="Io.Writer.JpegWriter.html" xlink:title="JpegWriter" target="_parent">
<polygon fill="none" stroke="black" points="476,-422 392,-422 392,-386 476,-386 476,-422"/>
<text text-anchor="middle" x="434" y="-401.1" font-family="Courier,monospace" font-size="11.00">JpegWriter</text>
</a>
</g>
<!-- \\GdWrapper\\Io\\Writer\\JpgWriter&#45;&gt;\\GdWrapper\\Io\\Writer\\JpegWriter -->
<g id="edge14" class="edge"><title>\\GdWrapper\\Io\\Writer\\JpgWriter&#45;&gt;\\GdWrapper\\Io\\Writer\\JpegWriter</title>
<path fill="none" stroke="black" d="M607.116,-404C573.244,-404 523.84,-404 486.471,-404"/>
<polygon fill="none" stroke="black" points="486.273,-400.5 476.273,-404 486.273,-407.5 486.273,-400.5"/>
</g>
<!-- \\GdWrapper\\Io\\Writer\\JpegWriter&#45;&gt;\\GdWrapper\\Io\\Writer\\AbstractWriter -->
<g id="edge16" class="edge"><title>\\GdWrapper\\Io\\Writer\\JpegWriter&#45;&gt;\\GdWrapper\\Io\\Writer\\AbstractWriter</title>
<path fill="none" stroke="black" d="M391.84,-409.27C361.334,-413.083 319.496,-418.313 284.508,-422.686"/>
<polygon fill="none" stroke="black" points="283.853,-419.241 274.365,-423.954 284.722,-426.187 283.853,-419.241"/>
</g>
<!-- \\GdWrapper\\Io\\Writer\\AbstractWriter&#45;&gt;\\GdWrapper\\Io\\Writer\\Writer -->
<g id="edge22" class="edge"><title>\\GdWrapper\\Io\\Writer\\AbstractWriter&#45;&gt;\\GdWrapper\\Io\\Writer\\Writer</title>
<path fill="none" stroke="black" stroke-dasharray="1,5" d="M161.763,-431C141.22,-431 118.459,-431 99.7757,-431"/>
<polygon fill="none" stroke="black" points="99.5752,-427.5 89.5752,-431 99.5752,-434.5 99.5752,-427.5"/>
</g>
<!-- \\GdWrapper\\Io\\Preset -->
<g id="node18" class="node"><title>\\GdWrapper\\Io\\Preset</title>
<a xlink:href="Io.Preset.html" xlink:title="Preset" target="_parent">
<polygon fill="none" stroke="black" points="674,-368 618,-368 618,-332 674,-332 674,-368"/>
<text text-anchor="middle" x="646" y="-347.1" font-family="Courier,monospace" font-size="11.00">Preset</text>
</a>
</g>
<!-- \\GdWrapper\\Io\\Exception -->
<g id="node19" class="node"><title>\\GdWrapper\\Io\\Exception</title>
<a xlink:href="Io.Exception.html" xlink:title="Exception" target="_parent">
<polygon fill="none" stroke="black" points="684,-314 608,-314 608,-278 684,-278 684,-314"/>
<text text-anchor="middle" x="646" y="-293.1" font-family="Courier,monospace" font-size="11.00">Exception</text>
</a>
</g>
<!-- \\LogicException -->
<g id="node25" class="node"><title>\\LogicException</title>
<ellipse fill="none" stroke="black" cx="434" cy="-72" rx="87.1802" ry="18.3848"/>
<text text-anchor="middle" x="434" y="-68.4" font-family="Times Roman,serif" font-size="14.00" fill="gray">\LogicException</text>
</g>
<!-- \\GdWrapper\\Io\\Exception&#45;&gt;\\LogicException -->
<g id="edge10" class="edge"><title>\\GdWrapper\\Io\\Exception&#45;&gt;\\LogicException</title>
<path fill="none" stroke="black" d="M610.718,-277.958C604.888,-274.338 599.092,-270.308 594,-266 533.269,-214.616 477.93,-138.092 451.076,-98.2502"/>
<polygon fill="none" stroke="black" points="453.944,-96.2422 445.482,-89.8667 448.121,-100.128 453.944,-96.2422"/>
</g>
<!-- \\GdWrapper\\Resource\\Resource -->
<g id="node23" class="node"><title>\\GdWrapper\\Resource\\Resource</title>
<a xlink:href="Resource.Resource.html" xlink:title="Resource" target="_parent">
<polygon fill="none" stroke="black" points="681,-150 611,-150 611,-114 681,-114 681,-150"/>
<text text-anchor="middle" x="646" y="-129.1" font-family="Courier,monospace" font-size="11.00">Resource</text>
</a>
</g>
</g>
</svg>
