<?xml version="1.0" encoding="UTF-8" standalone="no"?>
<!DOCTYPE svg PUBLIC "-//W3C//DTD SVG 1.1//EN"
 "http://www.w3.org/Graphics/SVG/1.1/DTD/svg11.dtd">
<!-- Generated by graphviz version 2.26.3 (20100126.1600)
 -->
<!-- Title: G Pages: 1 -->
<svg width="352pt" height="290pt"
 viewBox="0.00 0.00 352.00 290.00" xmlns="http://www.w3.org/2000/svg" xmlns:xlink="http://www.w3.org/1999/xlink">
<g id="graph1" class="graph" transform="scale(1 1) rotate(0) translate(4 286)">
<title>G</title>
<polygon fill="white" stroke="white" points="-4,5 -4,-286 349,-286 349,5 -4,5"/>
<g id="graph2" class="cluster"><title>cluster_GdWrapper</title>
<polyline fill="none" stroke="gray" points="20,-8 324,-8 "/>
<path fill="none" stroke="gray" d="M324,-8C330,-8 336,-14 336,-20"/>
<polyline fill="none" stroke="gray" points="336,-20 336,-262 "/>
<path fill="none" stroke="gray" d="M336,-262C336,-268 330,-274 324,-274"/>
<polyline fill="none" stroke="gray" points="324,-274 20,-274 "/>
<path fill="none" stroke="gray" d="M20,-274C14,-274 8,-268 8,-262"/>
<polyline fill="none" stroke="gray" points="8,-262 8,-20 "/>
<path fill="none" stroke="gray" d="M8,-20C8,-14 14,-8 20,-8"/>
<text text-anchor="middle" x="172" y="-260.1" font-family="Times Roman,serif" font-size="11.00" fill="gray">GdWrapper</text>
</g>
<g id="graph3" class="cluster"><title>cluster_GdWrapper\Resource</title>
<polyline fill="none" stroke="gray" points="28,-62 316,-62 "/>
<path fill="none" stroke="gray" d="M316,-62C322,-62 328,-68 328,-74"/>
<polyline fill="none" stroke="gray" points="328,-74 328,-232 "/>
<path fill="none" stroke="gray" d="M328,-232C328,-238 322,-244 316,-244"/>
<polyline fill="none" stroke="gray" points="316,-244 28,-244 "/>
<path fill="none" stroke="gray" d="M28,-244C22,-244 16,-238 16,-232"/>
<polyline fill="none" stroke="gray" points="16,-232 16,-74 "/>
<path fill="none" stroke="gray" d="M16,-74C16,-68 22,-62 28,-62"/>
<text text-anchor="middle" x="172" y="-230.1" font-family="Times Roman,serif" font-size="11.00" fill="gray">Resource</text>
</g>
<!-- \\GdWrapper\\Resource\\PngResource -->
<g id="node3" class="node"><title>\\GdWrapper\\Resource\\PngResource</title>
<a xlink:href="GdWrapper.Resource.PngResource.html" xlink:title="PngResource" target="_parent">
<polygon fill="none" stroke="black" points="316,-214 226,-214 226,-178 316,-178 316,-214"/>
<text text-anchor="middle" x="271" y="-193.1" font-family="Courier,monospace" font-size="11.00">PngResource</text>
</a>
</g>
<!-- \\GdWrapper\\Resource\\AbstractResource -->
<g id="node6" class="node"><title>\\GdWrapper\\Resource\\AbstractResource</title>
<a xlink:href="GdWrapper.Resource.AbstractResource.html" xlink:title="«abstract»&lt;br/&gt;AbstractResource" target="_parent">
<polygon fill="none" stroke="black" points="150,-160 24,-160 24,-124 150,-124 150,-160"/>
<text text-anchor="start" x="53" y="-147.433" font-family="Courier,monospace" font-size="11.00">«abstract»</text>
<text text-anchor="start" x="32.5" y="-134.233" font-family="Courier,monospace" font-size="11.00">AbstractResource</text>
</a>
</g>
<!-- \\GdWrapper\\Resource\\PngResource&#45;&gt;\\GdWrapper\\Resource\\AbstractResource -->
<g id="edge4" class="edge"><title>\\GdWrapper\\Resource\\PngResource&#45;&gt;\\GdWrapper\\Resource\\AbstractResource</title>
<path fill="none" stroke="black" d="M225.044,-182.513C204.923,-176.608 180.843,-169.541 158.47,-162.975"/>
<polygon fill="none" stroke="black" points="159.249,-159.556 148.668,-160.098 157.278,-166.273 159.249,-159.556"/>
</g>
<!-- \\GdWrapper\\Resource\\JpegResource -->
<g id="node4" class="node"><title>\\GdWrapper\\Resource\\JpegResource</title>
<a xlink:href="GdWrapper.Resource.JpegResource.html" xlink:title="JpegResource" target="_parent">
<polygon fill="none" stroke="black" points="320,-160 222,-160 222,-124 320,-124 320,-160"/>
<text text-anchor="middle" x="271" y="-139.1" font-family="Courier,monospace" font-size="11.00">JpegResource</text>
</a>
</g>
<!-- \\GdWrapper\\Resource\\JpegResource&#45;&gt;\\GdWrapper\\Resource\\AbstractResource -->
<g id="edge6" class="edge"><title>\\GdWrapper\\Resource\\JpegResource&#45;&gt;\\GdWrapper\\Resource\\AbstractResource</title>
<path fill="none" stroke="black" d="M221.691,-142C202.932,-142 181.129,-142 160.601,-142"/>
<polygon fill="none" stroke="black" points="160.326,-138.5 150.326,-142 160.326,-145.5 160.326,-138.5"/>
</g>
<!-- \\GdWrapper\\Resource\\GifResource -->
<g id="node5" class="node"><title>\\GdWrapper\\Resource\\GifResource</title>
<a xlink:href="GdWrapper.Resource.GifResource.html" xlink:title="GifResource" target="_parent">
<polygon fill="none" stroke="black" points="316,-106 226,-106 226,-70 316,-70 316,-106"/>
<text text-anchor="middle" x="271" y="-85.1" font-family="Courier,monospace" font-size="11.00">GifResource</text>
</a>
</g>
<!-- \\GdWrapper\\Resource\\GifResource&#45;&gt;\\GdWrapper\\Resource\\AbstractResource -->
<g id="edge8" class="edge"><title>\\GdWrapper\\Resource\\GifResource&#45;&gt;\\GdWrapper\\Resource\\AbstractResource</title>
<path fill="none" stroke="black" d="M225.044,-101.487C204.923,-107.392 180.843,-114.459 158.47,-121.025"/>
<polygon fill="none" stroke="black" points="157.278,-117.727 148.668,-123.902 159.249,-124.444 157.278,-117.727"/>
</g>
<!-- \\GdWrapper\\Preset -->
<g id="node7" class="node"><title>\\GdWrapper\\Preset</title>
<a xlink:href="GdWrapper.Preset.html" xlink:title="Preset" target="_parent">
<polygon fill="none" stroke="black" points="299,-52 243,-52 243,-16 299,-16 299,-52"/>
<text text-anchor="middle" x="271" y="-31.1" font-family="Courier,monospace" font-size="11.00">Preset</text>
</a>
</g>
</g>
</svg>
